<?xml version="1.0" standalone="no"?>
<!DOCTYPE svg PUBLIC "-//W3C//DTD SVG 20010904//EN"
 "http://www.w3.org/TR/2001/REC-SVG-20010904/DTD/svg10.dtd">
<svg version="1.0" xmlns="http://www.w3.org/2000/svg"
 width="1920.000000pt" height="480.000000pt" viewBox="0 0 1920.000000 480.000000"
 preserveAspectRatio="xMidYMid meet">

<g transform="translate(0.000000,480.000000) scale(0.100000,-0.100000)"
fill="#000000" stroke="none">
<path d="M9242 4174 c-22 -15 -22 -19 -22 -253 0 -250 2 -261 47 -261 32 0 43
28 43 113 0 72 1 75 25 81 42 11 100 77 114 130 21 85 -16 155 -101 190 -47
20 -78 20 -106 0z m122 -80 c36 -37 36 -100 0 -143 -44 -53 -52 -42 -52 62 0
120 5 128 52 81z"/>
<path d="M9964 4180 c-64 -25 -104 -127 -104 -260 0 -155 45 -246 126 -257 55
-7 98 16 124 68 27 52 24 114 -5 114 -15 0 -24 -12 -35 -45 -20 -60 -27 -70
-51 -70 -14 0 -26 14 -41 48 -29 65 -32 250 -5 299 16 31 44 53 65 53 5 0 19
-22 30 -50 32 -76 72 -64 57 17 -10 53 -54 93 -102 92 -21 0 -47 -4 -59 -9z"/>
<path d="M8379 4163 c-21 -25 -17 -275 5 -376 30 -134 91 -174 161 -104 53 53
66 114 66 311 0 93 -5 174 -10 179 -5 5 -17 7 -27 5 -18 -3 -19 -19 -25 -200
-5 -160 -9 -202 -23 -223 -9 -14 -20 -25 -25 -25 -22 0 -34 76 -38 240 -3 96
-9 183 -15 193 -11 22 -51 22 -69 0z"/>
<path d="M8682 4168 c-9 -9 -12 -78 -12 -249 0 -262 3 -273 58 -253 l27 9 3
150 3 150 26 -65 c14 -36 40 -105 58 -155 31 -84 35 -90 63 -93 24 -3 32 1 38
20 9 27 7 451 -2 480 -4 14 -13 18 -32 16 l-27 -3 4 -170 c2 -93 1 -167 -3
-164 -3 3 -30 72 -61 154 -30 82 -62 157 -72 167 -18 21 -53 24 -71 6z"/>
<path d="M9588 4163 c-79 -49 -107 -220 -62 -380 33 -120 133 -161 209 -86 37
37 53 78 65 167 18 124 -15 260 -72 300 -29 21 -106 20 -140 -1z m129 -70 c15
-23 18 -50 18 -163 0 -116 -3 -139 -19 -167 -23 -38 -43 -48 -63 -31 -57 47
-72 276 -23 356 25 41 62 43 87 5z"/>
<path d="M10254 4161 c-114 -69 -106 -430 10 -485 57 -27 93 -21 136 22 54 54
73 125 68 256 -6 159 -49 226 -145 226 -21 0 -52 -9 -69 -19z m133 -73 c22
-42 29 -194 14 -270 -13 -59 -47 -103 -73 -93 -41 16 -71 182 -54 298 14 92
79 129 113 65z"/>
<path d="M12735 3721 c-55 -35 -195 -175 -201 -202 -7 -31 33 -83 70 -93 37
-9 67 6 176 89 135 102 147 130 86 191 -40 40 -84 45 -131 15z"/>
<path d="M18940 3650 c0 -5 5 -10 10 -10 6 0 10 5 10 10 0 6 -4 10 -10 10 -5
0 -10 -4 -10 -10z"/>
<path d="M7740 3432 c-28 -11 -53 -30 -67 -51 l-23 -34 0 -736 c0 -694 1 -738
19 -776 39 -84 84 -103 251 -104 136 -2 284 54 397 147 49 41 70 68 100 129
38 77 38 78 38 198 -1 107 -4 127 -27 183 -37 86 -84 147 -163 211 l-67 55 38
30 c69 54 116 110 148 176 29 60 31 73 31 170 0 96 -2 110 -28 159 -60 113
-185 199 -351 241 -100 25 -232 26 -296 2z m330 -182 c102 -52 156 -141 147
-240 -6 -71 -41 -144 -93 -197 -54 -53 -98 -76 -133 -68 l-28 6 -1 242 c0 133
2 250 5 260 6 23 54 22 103 -3z m16 -751 c49 -30 123 -114 145 -166 27 -62 35
-142 20 -195 -28 -99 -146 -200 -234 -202 l-42 -1 -3 290 c-2 258 -1 291 14
302 18 13 47 5 100 -28z"/>
<path d="M8733 3440 c-84 -18 -147 -70 -158 -133 -3 -18 -4 -350 -2 -738 4
-683 4 -708 24 -745 26 -50 75 -84 123 -84 130 0 160 75 160 402 0 109 4 188
9 188 10 0 29 -48 88 -215 94 -268 161 -354 290 -371 45 -6 60 -3 108 21 65
31 80 57 63 107 -16 48 -27 58 -62 58 -59 0 -107 72 -150 226 -14 49 -41 133
-60 186 l-35 96 66 49 c126 92 198 209 224 366 35 208 -67 400 -269 505 -133
70 -312 105 -419 82z m286 -245 c71 -36 127 -90 157 -150 24 -50 26 -64 22
-134 -6 -98 -37 -167 -109 -240 -57 -56 -144 -104 -181 -99 l-23 3 -3 319 c-2
249 1 321 10 328 18 12 75 0 127 -27z"/>
<path d="M5879 3416 c-108 -42 -192 -116 -231 -204 -29 -65 -35 -187 -14 -272
26 -102 114 -271 237 -453 63 -92 127 -193 143 -224 52 -98 46 -198 -17 -269
-68 -78 -118 -80 -210 -8 -78 60 -107 65 -147 26 -26 -26 -30 -38 -30 -82 0
-48 3 -54 49 -100 60 -60 145 -90 255 -90 153 0 254 36 318 113 168 203 155
412 -43 672 -101 133 -179 252 -222 343 -36 75 -41 95 -45 172 l-4 88 35 38
c49 54 84 52 175 -9 87 -58 118 -66 154 -38 40 32 44 70 14 128 -53 105 -169
174 -301 180 -51 2 -93 -2 -116 -11z"/>
<path d="M6875 3417 c-103 -35 -169 -85 -228 -175 -57 -86 -90 -170 -119 -302
-19 -91 -22 -132 -22 -315 0 -148 5 -238 17 -305 34 -197 97 -364 174 -458 94
-115 292 -155 437 -89 219 101 339 397 340 837 0 252 -32 430 -103 576 -53
107 -106 166 -187 205 -58 29 -76 33 -167 36 -66 2 -116 -2 -142 -10z m276
-226 c38 -40 53 -65 72 -128 40 -125 50 -221 49 -443 -1 -346 -41 -529 -137
-624 -68 -68 -121 -70 -176 -8 -65 74 -117 239 -139 441 -25 225 4 552 58 657
54 103 113 154 181 154 40 0 49 -5 92 -49z"/>
<path d="M9736 3420 c-74 -23 -95 -71 -106 -254 -14 -214 -15 -1018 -2 -1101
33 -209 100 -289 262 -315 80 -12 291 -13 344 0 103 23 137 110 71 176 -23 23
-30 24 -151 24 -99 0 -132 3 -154 17 -61 36 -81 109 -96 353 -9 149 -13 145
151 145 139 1 165 11 185 70 14 41 2 81 -32 112 -17 15 -38 18 -147 18 -69 0
-132 4 -140 9 -11 7 -12 39 -7 170 11 268 17 324 36 349 17 20 29 22 143 27
136 5 164 16 197 73 28 50 -16 109 -96 127 -49 12 -419 11 -458 0z"/>
<path d="M12089 3397 c-44 -29 -93 -103 -113 -170 -12 -40 -124 -486 -162
-647 -6 -23 -8 -22 -26 20 -11 25 -41 117 -68 205 -26 88 -67 201 -90 250 -23
50 -55 125 -72 168 -50 129 -106 177 -208 177 -77 0 -117 -21 -141 -74 -19
-44 -19 -65 -17 -763 3 -701 3 -719 23 -753 38 -65 132 -89 204 -52 22 10 44
34 59 62 l23 45 -6 505 c-6 479 -5 503 11 475 10 -16 59 -156 110 -310 91
-275 164 -468 188 -493 35 -36 122 -28 144 15 6 10 22 68 36 128 15 61 46 182
71 270 24 88 51 196 61 240 9 44 21 87 25 95 6 9 8 -175 7 -450 -3 -435 -2
-468 16 -508 35 -81 107 -106 163 -58 27 23 28 29 31 126 2 56 -1 260 -7 454
-6 193 -14 468 -17 611 -3 143 -10 284 -15 313 -23 117 -141 179 -230 119z"/>
<path d="M12665 3403 c-36 -10 -66 -36 -88 -77 -22 -41 -22 -41 -24 -731 -1
-470 2 -704 10 -734 7 -29 24 -58 49 -83 33 -33 44 -38 84 -38 74 0 110 23
136 88 l23 57 0 700 0 700 -23 42 c-12 24 -32 49 -45 57 -25 16 -93 27 -122
19z"/>
<path d="M1586 3238 c-3 -35 -9 -168 -13 -295 l-6 -233 -129 0 -128 0 0 -120
0 -120 34 0 c19 0 37 -4 40 -9 3 -5 -6 -172 -19 -372 -14 -200 -25 -385 -25
-411 l0 -48 42 0 c187 0 1232 -121 1742 -201 104 -16 191 -27 195 -24 3 4 6
225 6 491 l0 484 53 0 52 0 2 110 c0 61 1 116 2 123 1 8 -34 15 -114 23 -173
18 -166 18 -184 -18 -9 -17 -16 -35 -16 -40 0 -11 -70 -171 -86 -196 -8 -13
-74 -18 -93 -8 -23 13 -54 63 -47 75 3 4 1 24 -4 45 -5 22 -5 49 0 61 5 14 4
27 -3 34 -6 6 -7 11 -2 11 6 0 11 15 12 34 l1 34 -101 6 c-233 15 -511 26
-825 32 l-332 7 6 61 c3 34 6 165 7 291 l2 230 -31 3 -31 3 -7 -63z m383 -934
c6 -5 -15 -544 -22 -550 -3 -4 -95 -1 -203 6 l-196 13 6 61 c3 34 8 142 11
241 3 99 8 195 11 213 l5 32 192 -6 c106 -4 194 -8 196 -10z m495 -21 l59 -6
-7 -285 c-4 -158 -8 -287 -9 -289 -3 -3 -391 27 -394 30 0 1 3 94 7 207 5 113
9 241 9 284 l1 79 138 -7 c75 -3 164 -9 196 -13z m438 -38 c89 -9 165 -18 170
-21 10 -6 11 -372 1 -493 l-6 -83 -56 6 c-31 3 -117 11 -191 17 -74 7 -138 15
-143 19 -4 3 -4 133 -1 288 l7 282 28 0 c16 0 102 -7 191 -15z"/>
<path d="M1746 2188 c5 -7 22 -33 40 -58 17 -25 39 -60 48 -77 9 -18 21 -33
27 -33 12 0 0 24 -58 113 -25 37 -49 67 -54 67 -6 0 -7 -6 -3 -12z"/>
<path d="M1646 2148 c5 -7 22 -33 40 -58 17 -25 55 -92 84 -150 56 -113 58
-116 64 -109 16 15 -162 329 -185 329 -6 0 -7 -6 -3 -12z"/>
<path d="M2262 2115 c6 -20 112 -174 116 -170 7 6 -57 110 -91 148 -16 18 -27
28 -25 22z"/>
<path d="M2840 2094 c0 -5 31 -70 70 -144 38 -74 70 -128 70 -119 0 9 -25 64
-55 123 -57 111 -85 158 -85 140z"/>
<path d="M2810 1922 c0 -17 53 -122 62 -122 4 0 -4 26 -18 58 -26 59 -44 85
-44 64z"/>
<path d="M17580 1900 c-13 -10 -13 -11 0 -9 29 3 53 -1 47 -8 -4 -3 1 -12 11
-19 16 -12 16 -14 -2 -31 -10 -10 -16 -12 -12 -6 9 16 -23 5 -42 -13 -10 -10
-8 -12 7 -11 11 0 17 6 15 12 -3 5 1 2 10 -9 18 -23 51 -14 42 11 -4 9 -1 20
6 24 9 6 10 15 2 36 -7 21 -17 29 -39 31 -17 1 -37 -3 -45 -8z"/>
<path d="M18176 1821 c-3 -5 1 -11 9 -14 9 -4 12 -1 8 9 -6 16 -10 17 -17 5z"/>
<path d="M17999 1686 c9 -11 9 -15 -1 -18 -8 -3 -7 -6 4 -10 11 -5 15 -2 13
10 -2 9 -4 20 -4 25 -1 4 -6 7 -12 7 -8 0 -8 -4 0 -14z"/>
<path d="M17946 1643 c-6 -14 -5 -15 5 -6 7 7 10 15 7 18 -3 3 -9 -2 -12 -12z"/>
<path d="M17690 1646 c0 -2 7 -7 16 -10 8 -3 12 -2 9 4 -6 10 -25 14 -25 6z"/>
<path d="M17959 1623 c-13 -16 -12 -17 4 -4 16 13 21 21 13 21 -2 0 -10 -8
-17 -17z"/>
<path d="M17317 1623 c-12 -11 -7 -41 7 -46 8 -3 22 0 32 8 15 11 16 15 5 29
-14 17 -33 21 -44 9z"/>
<path d="M17975 1611 c-3 -5 0 -13 6 -17 8 -5 9 -3 4 6 -6 10 -3 12 13 8 12
-4 20 -2 16 3 -7 12 -31 12 -39 0z"/>
<path d="M140 1540 c-11 -11 -20 -24 -20 -30 0 -15 38 -50 53 -50 18 0 47 32
47 53 0 19 -27 47 -46 47 -8 0 -23 -9 -34 -20z m58 -24 c5 -25 -12 -39 -37
-31 -20 6 -28 34 -14 49 13 13 48 1 51 -18z"/>
<path d="M578 1509 c-36 -21 -16 -79 27 -79 44 0 63 60 26 80 -24 12 -31 12
-53 -1z m57 -33 c0 -30 -31 -44 -51 -24 -24 24 -11 50 23 46 20 -2 28 -9 28
-22z"/>
<path d="M830 1435 c-13 -14 -21 -27 -18 -30 2 -3 17 9 33 25 16 17 24 30 19
30 -6 0 -21 -11 -34 -25z"/>
<path d="M1275 1444 c-34 -34 -1 -83 47 -71 31 8 41 38 21 66 -17 25 -46 27
-68 5z m62 -20 c8 -21 -19 -46 -40 -38 -9 3 -17 17 -17 30 0 19 5 24 25 24 14
0 28 -7 32 -16z"/>
<path d="M885 1400 c-16 -16 -26 -32 -24 -35 3 -3 18 9 34 25 16 16 26 32 24
35 -3 3 -18 -9 -34 -25z"/>
<path d="M7398 1412 c-51 -6 -52 -13 -51 -299 2 -310 0 -303 93 -303 111 0
190 68 190 162 0 58 -10 80 -57 130 -35 35 -35 36 -14 47 27 15 61 81 61 119
0 37 -36 91 -76 114 -35 20 -105 35 -146 30z m110 -78 c33 -23 45 -60 32 -100
-12 -35 -56 -78 -71 -68 -5 3 -9 45 -9 95 0 96 5 103 48 73z m-2 -260 c32 -21
54 -64 54 -104 0 -37 -47 -90 -79 -90 -20 0 -21 5 -21 105 0 66 4 105 10 105
6 0 22 -7 36 -16z"/>
<path d="M1772 1398 c-7 -7 -12 -21 -12 -33 0 -12 5 -26 12 -33 7 -7 21 -12
33 -12 12 0 26 5 33 12 7 7 12 21 12 33 0 12 -5 26 -12 33 -7 7 -21 12 -33 12
-12 0 -26 -5 -33 -12z m57 -12 c17 -20 2 -46 -25 -46 -29 0 -41 24 -24 45 16
19 34 19 49 1z"/>
<path d="M8055 1396 c-77 -34 -118 -131 -117 -283 1 -161 47 -272 121 -294 83
-25 143 10 189 109 24 52 26 68 27 182 0 95 -4 137 -18 176 -36 103 -117 147
-202 110z m114 -81 c38 -49 52 -184 31 -310 -15 -91 -62 -144 -98 -112 -34 31
-54 117 -54 229 1 114 11 160 44 195 28 30 52 29 77 -2z"/>
<path d="M8454 1391 c-72 -33 -102 -96 -111 -231 -4 -59 -1 -109 11 -163 19
-93 35 -126 78 -162 27 -23 39 -26 79 -23 94 9 135 68 146 209 8 103 -7 129
-72 129 -41 0 -75 -18 -75 -41 0 -5 17 -17 38 -27 l37 -18 -3 -64 c-2 -67 -23
-112 -54 -118 -42 -8 -82 142 -75 283 4 101 23 149 64 168 22 10 28 8 44 -11
10 -13 21 -44 24 -70 9 -66 12 -72 34 -72 30 0 40 28 31 93 -10 71 -31 104
-75 123 -45 18 -71 17 -121 -5z"/>
<path d="M8977 1392 c-15 -16 -17 -51 -17 -284 0 -244 1 -266 18 -281 23 -21
56 -22 73 -1 8 9 15 52 17 105 l4 89 42 24 c52 31 81 62 101 108 28 68 17 148
-28 197 -52 56 -176 81 -210 43z m160 -101 c27 -40 29 -80 7 -124 -16 -31 -51
-66 -66 -67 -5 0 -8 52 -8 116 0 113 0 115 22 112 12 -2 33 -18 45 -37z"/>
<path d="M9310 1390 c-18 -18 -20 -35 -22 -187 -5 -365 5 -393 150 -393 72 0
102 12 102 40 0 26 -26 39 -69 33 -56 -8 -76 21 -76 111 l0 71 52 3 c42 2 53
7 58 23 11 32 -12 49 -66 49 l-49 0 0 64 c0 35 3 78 6 95 6 29 9 31 49 31 28
0 51 7 66 20 l24 20 -24 20 c-19 16 -38 20 -102 20 -66 0 -82 -3 -99 -20z"/>
<path d="M9620 1390 c-19 -19 -20 -33 -20 -272 0 -274 5 -301 50 -306 47 -4
55 10 60 115 l5 98 22 -60 c49 -132 84 -169 140 -149 39 13 43 48 6 66 -23 11
-33 28 -53 92 l-26 80 41 41 c70 70 80 168 23 240 -51 66 -204 99 -248 55z
m184 -103 c24 -32 25 -87 1 -123 -18 -28 -74 -66 -87 -58 -9 6 -11 218 -2 227
11 11 67 -18 88 -46z"/>
<path d="M10044 1396 c-46 -20 -74 -66 -74 -119 0 -57 23 -110 94 -217 61 -91
68 -123 36 -158 -26 -27 -45 -28 -77 -3 -48 39 -84 -13 -40 -57 20 -19 39 -26
79 -29 96 -7 162 51 160 142 0 48 -18 88 -73 160 -43 57 -78 130 -79 161 0 11
9 29 20 39 18 16 21 16 55 -5 41 -25 65 -21 65 13 0 27 -32 61 -73 76 -36 14
-55 13 -93 -3z"/>
<path d="M10395 1397 c-39 -19 -59 -42 -87 -102 -19 -43 -22 -67 -23 -170 0
-143 19 -218 69 -272 27 -29 41 -36 82 -40 66 -6 109 22 147 97 71 142 46 408
-44 473 -34 25 -105 31 -144 14z m129 -97 c19 -31 21 -52 21 -185 0 -124 -3
-156 -18 -182 -33 -62 -74 -65 -101 -8 -52 109 -46 329 10 390 32 35 62 30 88
-15z"/>
<path d="M10941 1396 c-9 -10 -10 -65 -5 -202 4 -104 4 -187 2 -184 -3 3 -34
81 -68 173 -70 187 -88 217 -130 217 -54 0 -55 -9 -53 -298 2 -180 6 -269 14
-278 25 -30 88 -6 90 34 0 9 0 82 -1 162 -1 80 1 143 4 140 5 -6 109 -269 123
-315 13 -40 65 -49 84 -13 15 28 15 511 0 552 -11 29 -41 35 -60 12z"/>
<path d="M11204 1396 c-38 -27 -72 -145 -109 -379 -26 -169 -22 -199 26 -205
36 -4 61 28 67 88 4 47 6 50 36 54 104 16 106 15 106 -49 0 -72 37 -109 70
-70 16 19 8 124 -20 289 -23 135 -53 221 -91 258 -31 31 -55 35 -85 14z m75
-163 c15 -67 31 -163 31 -185 0 -15 -8 -18 -50 -18 -27 0 -50 3 -50 8 0 27 45
242 51 242 4 0 12 -21 18 -47z"/>
<path d="M7690 1375 c-16 -41 -23 -322 -11 -408 18 -127 44 -157 140 -157 89
0 111 57 26 71 -20 3 -41 12 -46 20 -16 27 -22 125 -16 290 6 188 1 209 -54
209 -22 0 -32 -6 -39 -25z"/>
<path d="M11489 1378 c-18 -34 -25 -346 -9 -436 17 -103 38 -125 122 -130 51
-3 68 -1 81 13 26 26 5 55 -39 55 -59 0 -66 33 -63 280 4 227 1 240 -52 240
-19 0 -32 -7 -40 -22z"/>
<path d="M17451 1376 c-9 -10 -8 -16 3 -26 19 -15 36 -5 36 21 0 22 -22 25
-39 5z"/>
<path d="M2206 1364 c-9 -8 -16 -24 -16 -34 0 -20 25 -50 41 -50 51 0 69 73
23 90 -32 13 -30 13 -48 -6z m52 -13 c20 -12 10 -45 -14 -49 -29 -4 -51 23
-34 43 14 17 29 19 48 6z"/>
<path d="M17112 1354 c2 -11 11 -20 22 -22 13 -3 17 1 14 14 -2 11 -11 20 -22
22 -13 3 -17 -1 -14 -14z"/>
<path d="M2474 1321 c-40 -15 -87 -38 -105 -51 -39 -26 -139 -121 -139 -131 0
-17 245 -239 264 -239 4 0 21 16 38 35 17 20 40 41 52 47 11 6 2 -6 -20 -25
-51 -44 -74 -91 -74 -149 0 -40 -2 -43 -28 -44 -24 -1 -255 -91 -291 -113 -11
-7 -11 -15 -2 -42 6 -18 9 -34 7 -37 -12 -11 -38 113 -43 204 -7 120 13 224
58 311 16 31 28 57 27 58 -2 1 -131 12 -288 24 -328 26 -1667 138 -1751 147
l-57 6 14 -79 c26 -136 102 -436 140 -543 84 -242 195 -409 312 -469 195 -100
639 -155 1332 -168 500 -8 778 12 1034 77 237 60 321 122 406 303 60 127 123
311 155 454 38 165 54 148 -146 162 -94 7 -173 10 -176 8 -2 -3 1 -15 7 -27 6
-12 10 -23 8 -25 -2 -2 -18 25 -36 59 -37 72 -84 130 -143 177 l-40 32 -36
-34 c-41 -39 -146 -177 -170 -223 -12 -23 -13 -31 -3 -34 36 -12 111 -100 110
-129 -1 -4 -8 6 -17 22 -39 74 -103 114 -185 116 -29 1 -45 3 -35 6 21 5 21
-2 -3 96 -27 107 -80 247 -94 247 -6 -1 -43 -13 -82 -29z m773 -497 c3 -55 1
-123 -5 -151 -14 -65 -48 -154 -67 -179 -14 -17 -14 -16 0 13 l15 32 -67 50
c-38 27 -103 71 -146 97 -75 45 -78 46 -92 28 -12 -16 -12 -12 1 24 8 24 13
58 11 75 -2 18 -2 24 0 15 4 -15 11 -14 71 8 111 42 252 112 253 126 0 7 5 2
11 -12 6 -14 13 -70 15 -126z m-695 -171 c6 -7 8 -13 4 -13 -9 0 -66 91 -66
104 0 6 12 -9 26 -34 14 -25 30 -51 36 -57z m297 11 c-25 -27 -89 -64 -111
-64 -7 0 10 11 37 24 28 13 59 33 69 45 11 11 21 21 24 21 3 0 -5 -12 -19 -26z
m-166 -65 c22 0 27 -3 15 -7 -15 -6 -11 -19 31 -102 58 -117 125 -217 148
-222 10 -3 -7 -10 -37 -17 -67 -15 -196 -15 -270 -1 -61 12 -203 75 -223 98
-9 11 -4 11 15 -2 16 -10 34 -16 42 -13 19 7 129 155 168 226 30 54 35 58 56
50 13 -5 38 -9 55 -10z m-479 -76 c9 -18 14 -33 12 -33 -6 0 -36 55 -36 66 0
11 5 3 24 -33z m82 -113 c39 -44 41 -48 10 -20 -21 19 -47 49 -58 65 -25 35
-18 29 48 -45z m854 31 c-24 -35 -106 -109 -135 -123 -11 -5 -6 1 10 13 17 12
55 48 85 80 63 66 70 71 40 30z m-165 -141 c-3 -5 -12 -10 -18 -10 -7 0 -6 4
3 10 19 12 23 12 15 0z"/>
<path d="M3392 1258 c-16 -16 -15 -53 2 -68 21 -16 56 -9 72 15 27 41 -39 88
-74 53z m65 -24 c8 -21 -19 -46 -40 -38 -9 3 -17 17 -17 30 0 19 5 24 25 24
14 0 28 -7 32 -16z"/>
<path d="M17567 1246 c-16 -23 -16 -37 -2 -68 8 -20 75 -26 75 -7 0 6 -6 9
-14 6 -9 -4 -12 0 -9 13 4 15 -21 80 -31 80 -2 0 -11 -11 -19 -24z"/>
<path d="M17153 1238 c-13 -17 -27 -51 -24 -61 1 -5 -3 -6 -8 -3 -5 4 -12 2
-15 -3 -10 -16 -41 -5 -42 15 -1 10 -2 25 -3 32 -1 6 -5 12 -10 12 -5 0 -7
-10 -4 -22 l5 -23 -20 23 c-20 22 -33 28 -31 15 1 -5 1 -19 0 -33 -1 -21 -3
-22 -12 -10 -8 12 -9 10 -5 -10 3 -14 6 -31 6 -37 0 -7 6 -13 14 -13 7 0 20
-15 27 -32 7 -18 27 -51 44 -73 16 -22 37 -51 46 -64 12 -19 19 -22 33 -14 16
9 16 11 2 26 -9 8 -21 17 -28 20 -7 2 -10 8 -6 12 5 5 16 1 25 -7 24 -21 98
-16 126 9 11 10 17 12 12 4 -5 -10 -4 -12 3 -7 7 4 12 14 12 22 0 10 -5 12
-12 8 -8 -5 -7 0 2 11 8 10 10 16 4 12 -7 -4 -14 5 -18 25 -3 17 -13 39 -21
48 -12 13 -13 23 -5 44 10 28 0 62 -24 78 -18 12 -63 9 -73 -4z m-53 -118 c0
-5 -2 -10 -4 -10 -3 0 -8 5 -11 10 -3 6 -1 10 4 10 6 0 11 -4 11 -10z"/>
<path d="M17940 1169 c-6 -23 -9 -43 -7 -45 8 -9 45 59 40 73 -9 24 -22 13
-33 -28z"/>
<path d="M16740 1126 c0 -2 7 -7 16 -10 8 -3 12 -2 9 4 -6 10 -25 14 -25 6z"/>
<path d="M11749 911 c-20 -16 -21 -22 -13 -52 13 -44 51 -60 88 -35 34 21 35
68 4 90 -29 21 -51 20 -79 -3z"/>
<path d="M17035 845 c-3 -31 -5 -59 -2 -61 2 -3 17 -6 32 -7 26 -2 29 2 41 53
7 30 11 56 9 58 -1 2 -18 5 -37 9 l-35 5 -8 -57z"/>
<path d="M17484 806 c-10 -8 -16 -17 -13 -20 3 -3 14 3 24 14 21 23 17 26 -11
6z"/>
<path d="M17490 769 c0 -5 5 -7 10 -4 6 3 10 8 10 11 0 2 -4 4 -10 4 -5 0 -10
-5 -10 -11z"/>
<path d="M17016 634 c-20 -20 -20 -27 2 -54 22 -28 49 -18 57 22 10 45 -27 65
-59 32z"/>
<path d="M18251 584 c0 -11 3 -14 6 -6 3 7 2 16 -1 19 -3 4 -6 -2 -5 -13z"/>
<path d="M18298 214 c-32 -37 -40 -44 -49 -39 -5 4 -9 1 -9 -4 0 -6 5 -11 10
-11 6 0 10 -4 10 -9 0 -5 -9 -7 -20 -4 -11 3 -17 9 -15 14 3 4 -10 2 -29 -6
-56 -23 -91 -18 -170 25 -89 49 -135 53 -165 14 -27 -35 -27 -54 2 -54 73 0
157 -54 157 -102 l0 -24 138 12 c75 7 198 15 272 19 74 4 153 10 175 14 22 4
66 7 97 6 58 -2 75 8 57 36 -5 8 -9 10 -9 5 0 -5 -8 0 -18 12 -10 12 -32 26
-48 32 -23 9 -31 8 -40 -4 -12 -17 -29 -22 -19 -7 3 5 1 12 -4 16 -20 12 1 35
28 30 14 -3 20 -2 14 1 -7 3 -13 13 -13 21 0 13 -3 13 -15 3 -11 -9 -15 -9
-15 -1 0 7 -5 9 -11 5 -7 -4 -26 -7 -43 -6 -28 0 -29 -1 -8 -9 12 -4 22 -11
22 -14 0 -7 -46 0 -72 10 -10 4 -18 3 -18 -3 0 -5 19 -14 43 -19 l42 -10 -33
-13 c-24 -9 -30 -15 -21 -21 11 -6 9 -12 -7 -27 -17 -16 -24 -18 -43 -8 -12 7
-19 15 -16 18 4 3 -2 5 -12 4 -11 0 -18 5 -17 16 1 11 -10 21 -30 28 -31 10
-69 44 -60 53 3 2 -2 7 -10 10 -9 4 -22 0 -28 -9z m12 -62 c0 -4 -9 -8 -20 -8
-11 0 -20 4 -20 8 0 4 9 8 20 8 11 0 20 -4 20 -8z m34 -18 c3 -8 2 -12 -4 -9
-6 3 -10 10 -10 16 0 14 7 11 14 -7z m32 -11 c-10 -10 -19 5 -10 18 6 11 8 11
12 0 2 -7 1 -15 -2 -18z m-59 -7 c4 -7 22 -18 38 -24 22 -8 25 -11 10 -11 -16
-1 -17 -3 -5 -11 8 -5 12 -12 8 -15 -9 -10 -68 24 -75 43 -4 9 -11 20 -17 24
-6 5 -1 8 11 8 12 0 26 -6 30 -14z m377 -1 c-4 -8 -12 -15 -20 -15 -8 0 -16 0
-19 0 -3 0 -5 3 -5 8 0 4 4 7 9 7 5 0 13 3 17 8 13 12 24 8 18 -8z"/>
<path d="M18462 173 c-12 -24 -4 -43 16 -43 16 1 16 2 0 13 -12 9 -14 17 -7
30 6 9 8 17 5 17 -3 0 -9 -8 -14 -17z"/>
<path d="M16995 160 c4 -6 11 -8 16 -5 14 9 11 15 -7 15 -8 0 -12 -5 -9 -10z"/>
<path d="M17038 163 c7 -3 16 -2 19 1 4 3 -2 6 -13 5 -11 0 -14 -3 -6 -6z"/>
<path d="M17089 163 c-1 -5 -1 -11 0 -15 0 -4 -10 -10 -24 -14 -14 -3 -25 -11
-25 -18 0 -6 -5 -3 -11 7 -14 25 -29 21 -29 -8 0 -14 5 -25 10 -25 6 0 10 -6
10 -14 0 -16 28 -42 36 -33 3 3 -2 18 -12 33 -18 27 -18 27 3 15 30 -16 35
-14 24 8 -8 15 -7 20 6 25 9 4 17 5 18 4 1 -2 7 -12 13 -23 6 -11 12 -15 12
-8 0 7 7 10 15 7 8 -4 15 -2 15 4 0 5 -9 12 -21 15 -12 3 -18 10 -14 16 3 6
-1 11 -10 11 -9 0 -13 5 -10 10 3 6 4 10 1 10 -3 0 -7 -3 -7 -7z"/>
<path d="M18745 150 c3 -5 8 -10 11 -10 2 0 4 5 4 10 0 6 -5 10 -11 10 -5 0
-7 -4 -4 -10z"/>
<path d="M18935 140 c-13 -14 -13 -19 -3 -23 7 -3 3 -6 -8 -6 -12 -1 -24 6
-28 14 -7 19 -50 19 -66 0 -6 -8 -9 -23 -5 -36 5 -16 4 -19 -5 -14 -8 5 -11 4
-6 -3 9 -16 143 -8 189 11 36 16 50 37 23 37 -7 0 -19 6 -25 14 -19 23 -49 25
-66 6z"/>
<path d="M18470 110 c0 -5 5 -10 11 -10 5 0 7 5 4 10 -3 6 -8 10 -11 10 -2 0
-4 -4 -4 -10z"/>
<path d="M16650 70 c0 -6 -11 -8 -25 -4 -30 7 -33 -8 -6 -35 35 -35 102 -34
73 2 -10 12 -12 18 -12 37 0 6 -7 10 -15 10 -8 0 -15 -5 -15 -10z"/>
<path d="M16833 68 c4 -10 -4 -26 -18 -40 l-23 -24 21 -1 c42 -2 69 7 63 22
-6 17 10 30 17 15 3 -6 4 -5 3 2 -1 7 -13 14 -25 14 -13 1 -28 8 -33 15 -8 11
-9 10 -5 -3z"/>
</g>
</svg>
